# xmcd
#
# Track frame offsets:
#	150
#	19725
#	37275
#	54900
#	76650
#	91725
#	107325
#	127350
#	142425
#	158925
#	176100
#	193650
#	209475
#	226350
#	242550
#	254025
#	272175
#	288300
#	306675
#	323775
#
# Disc length: 4337 seconds
#
# Revision: 0
# Processed by: cddbd v1.5.2PL0 Copyright (c) Steve Scherf et al.
# Submitted via: audiograbber 1.83.01
#
DISCID=3310ef14
DTITLE=SuperCore 116 - 116
DYEAR=1900
DGENRE=
TTITLE0=Martina McBride - Anyway
TTITLE1=John Mellencamp - Our Country
TTITLE2=Taylor Swift - Tim McGraw
TTITLE3=Sugarland - Stay
TTITLE4=Sugarland - Settlin'
TTITLE5=Carrie Underwood - I'll Stand By You
TTITLE6=Carrie Underwood - Wasted
TTITLE7=Toby Keith - High Maintenance Woman
TTITLE8=Big and Rich - Lost in This Moment
TTITLE9=Kenny Chesney - Beer in Mexico
TTITLE10=Luke Bryan - All My Friends Say
TTITLE11=Garth Brooks - More Than a Memory
TTITLE12=Kellie Pickler - Red High Heels
TTITLE13=Trace Adkins - Ladies Love Country Boys
TTITLE14=Miranda Lambert - Crazy Ex-Girlfriend
TTITLE15=Miranda Lambert - Famous in a Small Town
TTITLE16=Taylor Hicks - Do I Make You Proud
TTITLE17=Brad Paisley - Ticks
TTITLE18=Carrie Underwood - So Small
TTITLE19=extra - -
EXTD=
EXTT0=
EXTT1=
EXTT2=
EXTT3=
EXTT4=
EXTT5=
EXTT6=
EXTT7=
EXTT8=
EXTT9=
EXTT10=
EXTT11=
EXTT12=
EXTT13=
EXTT14=
EXTT15=
EXTT16=
EXTT17=
EXTT18=
EXTT19=
PLAYORDER=
